<svg xmlns="http://www.w3.org/2000/svg" width="48" height="48" viewBox="0 0 12.7 12.7" id="analytics"><path fill="#ffab00" style="line-height:normal;font-variant-ligatures:normal;font-variant-position:normal;font-variant-caps:normal;font-variant-numeric:normal;font-variant-alternates:normal;font-feature-settings:normal;text-indent:0;text-align:start;text-decoration-line:none;text-decoration-style:solid;text-decoration-color:#000;text-transform:none;text-orientation:mixed;shape-padding:0;isolation:auto;mix-blend-mode:normal" d="M 6.3457031,8.9921875 A 0.26460981,0.26460981 0 0 0 6.0859375,9.2597656 v 1.5878904 a 0.26464845,0.26464845 0 1 0 0.5292969,0 V 9.2597656 A 0.26460981,0.26460981 0 0 0 6.3457031,8.9921875 Z" color="#000" font-family="sans-serif" font-weight="400" overflow="visible"></path><path fill="#2962ff" style="line-height:normal;font-variant-ligatures:normal;font-variant-position:normal;font-variant-caps:normal;font-variant-numeric:normal;font-variant-alternates:normal;font-feature-settings:normal;text-indent:0;text-align:start;text-decoration-line:none;text-decoration-style:solid;text-decoration-color:#000;text-transform:none;text-orientation:mixed;shape-padding:0;isolation:auto;mix-blend-mode:normal" d="M 5.5507812 6 A 1.0000999 1.0000999 0 0 0 4.6855469 6.4980469 C 4.2663735 7.2217349 4 8.076618 4 9 L 4 31 C 4 33.752703 6.2472971 36 9 36 L 39 36 C 41.752702 36 44 33.752703 44 31 L 44 9 C 44 8.0766176 43.733622 7.2217346 43.314453 6.4980469 A 1.0000999 1.0000999 0 0 0 42.449219 6 L 5.5507812 6 z " color="#000" font-family="sans-serif" font-weight="400" overflow="visible" transform="scale(.26458)"></path><path fill="#ffab00" style="line-height:normal;font-variant-ligatures:normal;font-variant-position:normal;font-variant-caps:normal;font-variant-numeric:normal;font-variant-alternates:normal;font-feature-settings:normal;text-indent:0;text-align:start;text-decoration-line:none;text-decoration-style:solid;text-decoration-color:#000;text-transform:none;text-orientation:mixed;shape-padding:0;isolation:auto;mix-blend-mode:normal" d="M 4.0019531 0 C 1.8032502 0 -5.9211895e-16 1.8032502 0 4.0019531 C 0 6.2006555 1.8032502 8.0019531 4.0019531 8.0019531 L 44.003906 8.0019531 C 46.202609 8.0019531 47.996094 6.2006555 47.996094 4.0019531 C 47.996094 1.8032502 46.202609 -5.9211895e-16 44.003906 0 L 4.0019531 0 z " color="#000" font-family="sans-serif" font-weight="400" overflow="visible" transform="scale(.26458)"></path><path fill="#263238" style="line-height:normal;font-variant-ligatures:normal;font-variant-position:normal;font-variant-caps:normal;font-variant-numeric:normal;font-variant-alternates:normal;font-feature-settings:normal;text-indent:0;text-align:start;text-decoration-line:none;text-decoration-style:solid;text-decoration-color:#000;text-transform:none;text-orientation:mixed;shape-padding:0;isolation:auto;mix-blend-mode:normal" d="M 23.894531 10.001953 C 18.633958 10.007585 14.084177 13.68542 13.029297 18.800781 A 1.0001 1.0001 0 0 0 14.011719 19.998047 L 19.267578 19.998047 A 1.0001 1.0001 0 0 0 20.181641 19.40625 C 20.824298 17.948693 22.27772 17.000799 23.894531 17 C 24.641796 17.001399 25.378041 17.205745 26.013672 17.591797 A 1.0001 1.0001 0 0 0 27.232422 17.451172 L 30.855469 13.863281 A 1.0001 1.0001 0 0 0 30.767578 12.365234 C 28.808781 10.834919 26.387327 10.00247 23.894531 10.001953 z " color="#000" font-family="sans-serif" font-weight="400" overflow="visible" transform="scale(.26458)"></path><path fill="#ffab00" style="line-height:normal;font-variant-ligatures:normal;font-variant-position:normal;font-variant-caps:normal;font-variant-numeric:normal;font-variant-alternates:normal;font-feature-settings:normal;text-indent:0;text-align:start;text-decoration-line:none;text-decoration-style:solid;text-decoration-color:#000;text-transform:none;text-orientation:mixed;shape-padding:0;isolation:auto;mix-blend-mode:normal" d="M 32.738281 15.220703 A 1.0001 1.0001 0 0 0 32.066406 15.509766 L 28.664062 18.875 C 28.598106 18.940288 28.511551 19.000985 28.390625 19.060547 A 1.0001 1.0001 0 0 0 27.859375 20.173828 C 27.919764 20.447345 27.945879 20.722084 27.947266 21.001953 C 27.947266 23.217391 26.149341 25.001954 23.894531 25.001953 C 22.278883 24.999905 20.831648 24.052216 20.189453 22.595703 A 1.0001 1.0001 0 0 0 19.273438 21.998047 L 14.003906 21.998047 A 1.0001 1.0001 0 0 0 13.021484 23.201172 C 14.077179 28.320466 18.629908 31.999435 23.894531 32 C 30.009003 32 34.998047 27.070787 34.998047 21.001953 C 34.997478 19.162696 34.534898 17.352336 33.646484 15.738281 A 1.0001 1.0001 0 0 0 32.738281 15.220703 z " color="#000" font-family="sans-serif" font-weight="400" overflow="visible" transform="scale(.26458)"></path><path fill="#263238" style="line-height:normal;font-variant-ligatures:normal;font-variant-position:normal;font-variant-caps:normal;font-variant-numeric:normal;font-variant-alternates:normal;font-feature-settings:normal;text-indent:0;text-align:start;text-decoration-line:none;text-decoration-style:solid;text-decoration-color:#000;text-transform:none;text-orientation:mixed;shape-padding:0;isolation:auto;mix-blend-mode:normal" d="M 23.998047 40.001953 C 21.800752 40.001953 19.998047 41.806614 19.998047 44.003906 C 19.998047 46.201203 21.800752 47.996094 23.998047 47.996094 C 26.195341 47.996094 28 46.201203 28 44.003906 C 28 41.806614 26.195341 40.001953 23.998047 40.001953 z " color="#000" font-family="sans-serif" font-weight="400" overflow="visible" transform="scale(.26458)"></path></svg>