<svg xmlns="http://www.w3.org/2000/svg" id="analytics" x="0" y="0" version="1.1" viewBox="0 0 100 100" xml:space="preserve"><path fill="#daac01" d="M2 2h96v96H2z"></path><path fill="#cd811c" d="M71.231 39.62a3.978 3.978 0 0 0-3.05-1.44c-2.2 0-4 1.79-4 4 0 .74.2 1.43.56 2.03l-9.36 9.35c-.61-.37-1.32-.57-2.05-.57-.09 0-.17.02-.26.03l-26.29-26.29-.03-.04a.983.983 0 0 0-.75-.34c-.55 0-1 .45-1 1v45.29c0 .28.11.52.28.7l.01.01.01.01L49.941 98H98V66.37L71.241 39.61l-.01.01z"></path><path fill="#fff" d="M74 71.645H27v-9.79l10.09-10.09c.61.37 1.3.56 2.02.56 1.04 0 2.03-.4 2.79-1.13l7.61 4.64c-.12.37-.18.76-.18 1.16a3.999 3.999 0 1 0 8 0c0-.71-.19-1.4-.55-2l9.38-9.37c.59.36 1.29.56 2.02.56a3.999 3.999 0 1 0-4-4c0 .74.2 1.43.56 2.03l-9.36 9.35c-.61-.37-1.32-.57-2.05-.57-1.04 0-2.05.41-2.78 1.14l-7.61-4.64v-.01a3.999 3.999 0 1 0-7.83-1.16c0 .71.19 1.42.56 2.02L27 59.015v-31.66c0-.55-.45-1-1-1s-1 .45-1 1v45.29c0 .56.45 1 1 1h48c.55 0 1-.44 1-1 0-.55-.45-1-1-1z"></path></svg>