<svg xmlns="http://www.w3.org/2000/svg" viewBox="0 0 150 150" id="analytics"><path fill="#ea8953" d="M11 11h128v128H11z"></path><path fill="#e1e6e9" d="M40.537 37.5h68.926v51.759H40.537z"></path><path fill="#64798a" d="M109.924 43.031H40.076a2 2 0 0 1-2-2V39.5a2 2 0 0 1 2-2h69.848a2 2 0 0 1 2 2v1.531a2 2 0 0 1-2 2z"></path><path fill="#3a556a" d="m67.06 110.082 7.892-9.81 7.893 9.81h5.056l-10.98-13.645v-7.178h-3.938v7.178l-10.979 13.645z"></path><path fill="#2f4859" d="M61.097 110.082h6.138a1.21 1.21 0 0 1 0 2.418h-6.138a1.21 1.21 0 1 1 0-2.418zM82.67 110.082h6.139a1.21 1.21 0 0 1 0 2.418H82.67a1.21 1.21 0 1 1 0-2.418z"></path><path fill="#27a2db" d="M94.967 58.065c.01-.045.018-.09.024-.135.009-.08.01-.159.008-.24 0-.041.002-.082-.002-.124a1.739 1.739 0 0 0-.049-.264c-.008-.032-.011-.065-.021-.097a1.713 1.713 0 0 0-.369-.649c-.023-.025-.05-.045-.073-.068a1.739 1.739 0 0 0-.202-.177c-.034-.025-.07-.044-.106-.066a1.746 1.746 0 0 0-.21-.115 1.775 1.775 0 0 0-.128-.048 1.768 1.768 0 0 0-.225-.064c-.023-.006-.045-.016-.07-.02l-8.213-1.382a1.754 1.754 0 1 0-.582 3.458l3.354.565-12.222 6.95-5.616-3.761a1.753 1.753 0 0 0-1.843-.067l-12.535 7.128a1.754 1.754 0 0 0 1.734 3.05l11.593-6.594 5.616 3.762c.552.37 1.265.395 1.843.067l13.164-7.486-1.23 3.17a1.753 1.753 0 1 0 3.27 1.268l3.012-7.765c.008-.023.01-.047.018-.07.025-.074.045-.15.06-.226z"></path></svg>