<svg xmlns="http://www.w3.org/2000/svg" version="1.1" xmlns:xlink="http://www.w3.org/1999/xlink" xmlns:svgjs="http://svgjs.dev/svgjs" width="1000" height="1000" viewBox="0 0 1000 1000"><rect width="1000" height="1000" fill="#ffffff"></rect><g transform="matrix(0.7,0,0,0.7,149.57575757575756,412.42007615155234)"><svg viewBox="0 0 396 99" data-background-color="#ffffff" preserveAspectRatio="xMidYMid meet" height="249" width="1000" xmlns="http://www.w3.org/2000/svg" xmlns:xlink="http://www.w3.org/1999/xlink"><g id="tight-bounds" transform="matrix(1,0,0,1,0.2400000000000091,0.24419082614068088)"><svg viewBox="0 0 395.52 98.51161834771865" height="98.51161834771865" width="395.52"><g><svg viewBox="0 0 514.3623721100311 128.11152329523318" height="98.51161834771865" width="395.52"><g transform="matrix(1,0,0,1,0,17.705717040079264)"><svg viewBox="0 0 395.52 92.70008921507466" height="92.70008921507466" width="395.52"><g id="textblocktransform"><svg viewBox="0 0 395.52 92.70008921507466" height="92.70008921507466" width="395.52" id="textblock"><g><svg viewBox="0 0 395.52 61.08193327908869" height="61.08193327908869" width="395.52"><g transform="matrix(1,0,0,1,0,0)"><svg width="395.52" viewBox="2.15 -36.3 307.22 47.45" height="61.08193327908869" data-palette-color="#ba3b0a"><path d="M18.85 11.15L16.55 7.2Q18.8 6.1 20 4.78 21.2 3.45 21.78 2.08 22.35 0.7 22.43-0.68 22.5-2.05 22.5-3.25L22.5-3.25 22.5-3.95Q21.35-1.85 19.15-0.73 16.95 0.4 14.05 0.4L14.05 0.4Q10.9 0.4 8.65-0.8 6.4-2 4.95-4.23 3.5-6.45 2.83-9.55 2.15-12.65 2.15-16.45L2.15-16.45Q2.15-20.35 3.05-23.63 3.95-26.9 5.78-29.28 7.6-31.65 10.38-32.98 13.15-34.3 16.95-34.3L16.95-34.3Q20.3-34.3 22.58-33.2 24.85-32.1 26.15-30.75L26.15-30.75 23.25-26.95Q21.95-28.25 20.08-28.98 18.2-29.7 16.25-29.7L16.25-29.7Q14.1-29.7 12.65-28.7 11.2-27.7 10.3-25.98 9.4-24.25 9-21.93 8.6-19.6 8.6-16.95L8.6-16.95Q8.6-14.1 8.97-11.78 9.35-9.45 10.13-7.78 10.9-6.1 12.15-5.18 13.4-4.25 15.2-4.25L15.2-4.25Q16.35-4.25 17.55-4.78 18.75-5.3 19.73-6.28 20.7-7.25 21.3-8.65 21.9-10.05 21.9-11.85L21.9-11.85 21.9-16.4 27.75-16.4 27.75-1.35Q27.75 1.7 26.93 3.75 26.1 5.8 24.83 7.18 23.55 8.55 21.98 9.47 20.4 10.4 18.85 11.15L18.85 11.15ZM44.4-19.7Q43.5-19.7 42.6-19.25 41.7-18.8 41-18.03 40.3-17.25 39.85-16.15 39.4-15.05 39.4-13.7L39.4-13.7 39.4 0 33.7 0 33.7-12.6Q33.7-15.6 33.3-17.63 32.9-19.65 32.45-20.9L32.45-20.9Q31.9-22.35 31.25-23.25L31.25-23.25 35.75-25.05Q36.2-24.5 36.7-23.7L36.7-23.7Q37.1-23 37.5-22.05 37.9-21.1 38.15-19.8L38.15-19.8Q39.15-22.7 41.05-23.98 42.95-25.25 45.35-25.25L45.35-25.25Q46.5-25.25 47.5-24.98 48.5-24.7 48.45-24.7L48.45-24.7 46.85-19.15Q46.9-19.15 46.27-19.43 45.65-19.7 44.4-19.7L44.4-19.7ZM70.3-23.85L70.3-12.05Q70.3-9.05 70.67-7.03 71.05-5 71.5-3.75L71.5-3.75Q72.05-2.25 72.69-1.4L72.69-1.4 68.25 0.4Q67.59-0.25 67.05-1.15L67.05-1.15Q66.59-1.95 66.19-3.08 65.8-4.2 65.69-5.75L65.69-5.75Q64.84-2.75 62.97-1.23 61.09 0.3 57.9 0.3L57.9 0.3Q55.55 0.3 53.82-0.58 52.09-1.45 50.95-3.08 49.8-4.7 49.24-7 48.7-9.3 48.7-12.1L48.7-12.1Q48.7-14.95 49.57-17.38 50.45-19.8 52.02-21.55 53.59-23.3 55.8-24.3 58-25.3 60.65-25.3L60.65-25.3Q62.15-25.3 63.77-25.08 65.39-24.85 66.8-24.6 68.19-24.35 69.17-24.13 70.15-23.9 70.3-23.85L70.3-23.85ZM58.84-3.7Q60.09-3.7 61.15-4.55 62.2-5.4 62.97-6.78 63.75-8.15 64.17-9.93 64.59-11.7 64.59-13.55L64.59-13.55 64.59-20.75Q64.09-20.9 63.09-21.1 62.09-21.3 61.3-21.3L61.3-21.3Q59.4-21.3 58.17-20.65 56.95-20 56.2-18.85 55.45-17.7 55.15-16.1 54.84-14.5 54.84-12.6L54.84-12.6Q54.84-10.85 54.95-9.25 55.05-7.65 55.47-6.4 55.9-5.15 56.7-4.42 57.5-3.7 58.84-3.7L58.84-3.7ZM99.49-1.4L95.04 0.4Q94.94 0.35 94.59-0.08 94.24-0.5 93.82-1.25 93.39-2 92.99-3.13 92.59-4.25 92.49-5.75L92.49-5.75Q91.64-2.75 89.77-1.23 87.89 0.3 84.69 0.3L84.69 0.3Q82.34 0.3 80.62-0.58 78.89-1.45 77.74-3.08 76.59-4.7 76.04-7 75.49-9.3 75.49-12.1L75.49-12.1Q75.49-14.95 76.37-17.38 77.24-19.8 78.82-21.55 80.39-23.3 82.59-24.3 84.79-25.3 87.44-25.3L87.44-25.3Q88.34-25.3 89.37-25.2 90.39-25.1 91.39-24.95L91.39-24.95 91.39-36.25 97.09-35.25 97.09-12.05Q97.09-9.05 97.44-7.08 97.79-5.1 98.24-3.88 98.69-2.65 99.07-2.1 99.44-1.55 99.49-1.4L99.49-1.4ZM85.64-3.75Q86.89-3.75 87.94-4.6 88.99-5.45 89.77-6.83 90.54-8.2 90.97-9.95 91.39-11.7 91.39-13.55L91.39-13.55 91.39-20.75Q90.89-20.9 89.89-21.1 88.89-21.3 88.09-21.3L88.09-21.3Q86.19-21.3 84.97-20.65 83.74-20 82.99-18.85 82.24-17.7 81.94-16.1 81.64-14.5 81.64-12.6L81.64-12.6Q81.64-10.85 81.74-9.25 81.84-7.65 82.27-6.43 82.69-5.2 83.49-4.48 84.29-3.75 85.64-3.75L85.64-3.75ZM113.04 0L126.04-33.85 130.74-33.85 143.79 0 137.44 0 134.34-8.85 122.14-8.85 118.94 0 113.04 0ZM123.74-13.25L132.79-13.25Q131.19-17.75 130.04-21.43 128.89-25.1 128.29-27.2L128.29-27.2Q127.59-24.95 126.44-21.3 125.29-17.65 123.74-13.25L123.74-13.25ZM167.94 0L162.29 0 162.29-16.15Q162.29-18.25 161.54-19.53 160.79-20.8 158.99-20.8L158.99-20.8Q157.84-20.8 156.76-20.23 155.69-19.65 154.84-18.55 153.99-17.45 153.46-15.88 152.94-14.3 152.94-12.35L152.94-12.35 152.94 0 147.24 0 147.24-12.6Q147.24-15.6 146.84-17.63 146.44-19.65 145.99-20.9L145.99-20.9Q145.44-22.35 144.79-23.25L144.79-23.25 149.29-25.05Q149.79-24.5 150.29-23.7L150.29-23.7Q150.69-23 151.09-21.98 151.49-20.95 151.74-19.65L151.74-19.65Q153.04-22.65 155.49-23.98 157.94-25.3 160.64-25.3L160.64-25.3Q164.49-25.3 166.21-22.98 167.94-20.65 167.94-16.7L167.94-16.7 167.94 0ZM194.33-23.85L194.33-12.05Q194.33-9.05 194.71-7.03 195.08-5 195.53-3.75L195.53-3.75Q196.08-2.25 196.73-1.4L196.73-1.4 192.28 0.4Q191.63-0.25 191.08-1.15L191.08-1.15Q190.63-1.95 190.23-3.08 189.83-4.2 189.73-5.75L189.73-5.75Q188.88-2.75 187.01-1.23 185.13 0.3 181.93 0.3L181.93 0.3Q179.58 0.3 177.86-0.58 176.13-1.45 174.98-3.08 173.83-4.7 173.28-7 172.73-9.3 172.73-12.1L172.73-12.1Q172.73-14.95 173.61-17.38 174.48-19.8 176.06-21.55 177.63-23.3 179.83-24.3 182.03-25.3 184.68-25.3L184.68-25.3Q186.18-25.3 187.81-25.08 189.43-24.85 190.83-24.6 192.23-24.35 193.21-24.13 194.18-23.9 194.33-23.85L194.33-23.85ZM182.88-3.7Q184.13-3.7 185.18-4.55 186.23-5.4 187.01-6.78 187.78-8.15 188.21-9.93 188.63-11.7 188.63-13.55L188.63-13.55 188.63-20.75Q188.13-20.9 187.13-21.1 186.13-21.3 185.33-21.3L185.33-21.3Q183.43-21.3 182.21-20.65 180.98-20 180.23-18.85 179.48-17.7 179.18-16.1 178.88-14.5 178.88-12.6L178.88-12.6Q178.88-10.85 178.98-9.25 179.08-7.65 179.51-6.4 179.93-5.15 180.73-4.42 181.53-3.7 182.88-3.7L182.88-3.7ZM206.33 0.2Q203.48 0.2 202.13-1.38 200.78-2.95 200.78-5.4L200.78-5.4 200.78-35.25 206.48-36.3 206.48-5.95Q206.48-4.8 206.93-4.35 207.38-3.9 208.23-3.9L208.23-3.9Q208.73-3.9 209.21-3.95 209.68-4 210.08-4.1L210.08-4.1Q210.53-4.2 210.88-4.3L210.88-4.3 211.58-0.7Q210.93-0.45 210.13-0.25L210.13-0.25Q209.43-0.05 208.48 0.08 207.53 0.2 206.33 0.2L206.33 0.2ZM236.18-24.9L235.93-10.1Q235.93-8.6 236.15-7.35 236.38-6.1 236.65-4.88 236.93-3.65 237.18-2.4 237.43-1.15 237.43 0.35L237.43 0.35Q237.43 5.65 234.73 8.25 232.03 10.85 227.43 10.85L227.43 10.85Q225.93 10.85 224.43 10.58 222.93 10.3 221.65 9.95 220.38 9.6 219.48 9.25 218.58 8.9 218.28 8.75L218.28 8.75 219.68 4.4Q220.38 4.7 221.25 5.03 222.13 5.35 223.05 5.65 223.98 5.95 224.98 6.15 225.98 6.35 226.93 6.35L226.93 6.35Q229.73 6.35 230.98 4.67 232.23 3 232.23 0.35L232.23 0.35Q232.23-2.05 231.23-4.6L231.23-4.6Q229.83-1.95 227.5-0.83 225.18 0.3 222.63 0.3L222.63 0.3Q218.68 0.3 217-2 215.33-4.3 215.33-8.3L215.33-8.3 215.33-24.9 221.03-24.9 221.03-8.45Q221.03-6.35 221.78-5.15 222.53-3.95 224.33-3.95L224.33-3.95Q225.28-3.95 226.35-4.5 227.43-5.05 228.3-6.03 229.18-7 229.75-8.38 230.33-9.75 230.33-11.35L230.33-11.35 230.33-24.9 236.18-24.9ZM239.73-20.85L239.73-24.9 244.23-24.9 245.23-30.75 249.93-31.8 249.93-24.9 256.08-24.9 255.38-20.85 249.93-20.85 249.93-6.05Q249.93-4.75 250.63-4.38 251.33-4 252.18-4L252.18-4Q252.88-4 253.58-4.1 254.28-4.2 254.83-4.35L254.83-4.35Q255.48-4.5 256.08-4.7L256.08-4.7 257.03-0.95 256.58-0.8Q256.13-0.6 255.25-0.38 254.38-0.15 253.2 0.03 252.03 0.2 250.63 0.2L250.63 0.2Q249.23 0.2 248.05-0.1 246.88-0.4 246.03-1.07 245.18-1.75 244.7-2.8 244.23-3.85 244.23-5.4L244.23-5.4 244.23-20.85 239.73-20.85ZM265.77 0.2Q263.12 0.2 261.72-1.38 260.32-2.95 260.32-5.45L260.32-5.45 260.32-24.9 266.02-24.9 266.02-5.95Q266.02-4.8 266.37-4.4 266.72-4 267.42-4L267.42-4Q267.62-4 267.85-4 268.07-4 268.27-4.05L268.27-4.05Q268.47-4.05 268.72-4.1L268.72-4.1 269.32-0.5Q268.97-0.3 268.42-0.15L268.42-0.15Q267.97 0 267.3 0.1 266.62 0.2 265.77 0.2L265.77 0.2ZM263.27-36Q264.87-36 265.72-35.05 266.57-34.1 266.57-32.6L266.57-32.6Q266.57-31.1 265.7-30.1 264.82-29.1 263.12-29.1L263.12-29.1Q261.52-29.1 260.65-30.08 259.77-31.05 259.77-32.45L259.77-32.45Q259.77-34 260.65-35 261.52-36 263.27-36L263.27-36ZM290.02-22.1L286.82-19.05Q286.07-19.9 285.3-20.5 284.52-21.1 283.22-21.1L283.22-21.1Q282.47-21.1 281.55-20.88 280.62-20.65 279.82-19.78 279.02-18.9 278.5-17.2 277.97-15.5 277.97-12.6L277.97-12.6Q277.97-9.65 278.5-7.93 279.02-6.2 279.85-5.25 280.67-4.3 281.62-4.03 282.57-3.75 283.47-3.75L283.47-3.75Q284.17-3.75 284.92-3.88 285.67-4 286.37-4.17 287.07-4.35 287.6-4.5 288.12-4.65 288.37-4.75L288.37-4.75 289.77-1.15Q289.62-1.1 289.1-0.85 288.57-0.6 287.67-0.35 286.77-0.1 285.52 0.13 284.27 0.35 282.72 0.35L282.72 0.35Q279.82 0.35 277.77-0.53 275.72-1.4 274.4-3 273.07-4.6 272.45-6.85 271.82-9.1 271.82-11.85L271.82-11.85Q271.82-15.15 272.7-17.7 273.57-20.25 275.12-21.98 276.67-23.7 278.77-24.6 280.87-25.5 283.27-25.5L283.27-25.5Q285.62-25.5 287.25-24.6 288.87-23.7 290.02-22.1L290.02-22.1ZM301.17-25.5L301.17-25.5Q302.62-25.5 304.02-25.2 305.42-24.9 306.52-24.5L306.52-24.5Q307.82-24.05 308.92-23.55L308.92-23.55 307.22-19.65Q306.22-20.1 305.22-20.45L305.22-20.45Q304.37-20.75 303.34-21.03 302.32-21.3 301.32-21.3L301.32-21.3Q300.17-21.3 299.34-20.75 298.52-20.2 298.52-19.1L298.52-19.1Q298.52-16.25 302.67-14.65L302.67-14.65Q304.22-14.05 305.47-13.38 306.72-12.7 307.59-11.8 308.47-10.9 308.92-9.73 309.37-8.55 309.37-6.95L309.37-6.95Q309.37-5.55 308.79-4.2 308.22-2.85 307.09-1.8 305.97-0.75 304.34-0.13 302.72 0.5 300.67 0.5L300.67 0.5Q299.02 0.5 297.42 0.13 295.82-0.25 294.54-0.7 293.27-1.15 292.52-1.55L292.52-1.55 291.77-1.9 293.62-6.1 294.27-5.75Q294.92-5.35 295.92-4.9 296.92-4.45 298.07-4.08 299.22-3.7 300.17-3.7L300.17-3.7Q301.92-3.7 302.77-4.4 303.62-5.1 303.62-6.25L303.62-6.25Q303.62-7.55 302.69-8.63 301.77-9.7 299.92-10.4L299.92-10.4Q296.07-11.85 294.39-13.7 292.72-15.55 292.72-18.5L292.72-18.5Q292.72-19.9 293.37-21.18 294.02-22.45 295.14-23.43 296.27-24.4 297.82-24.95 299.37-25.5 301.17-25.5Z" opacity="1" transform="matrix(1,0,0,1,0,0)" fill="#ba3b0a" class="wordmark-text-0" data-fill-palette-color="primary" id="text-0"></path></svg></g></svg></g><g transform="matrix(1,0,0,1,163.31020799999996,75.50191175988283)"><svg viewBox="0 0 232.20979200000002 17.198177455191825" height="17.198177455191825" width="232.20979200000002"><g transform="matrix(1,0,0,1,0,0)"><svg width="232.20979200000002" viewBox="1.5 -37.5 675.01 50" height="17.198177455191825" data-palette-color="#ba3b0a"><path d="M17.9 0.7Q12.85 0.7 9.15-1.63 5.45-3.95 3.48-8.08 1.5-12.2 1.5-17.5L1.5-17.5Q1.5-22.95 3.6-27.08 5.7-31.2 9.38-33.45 13.05-35.7 17.75-35.7L17.75-35.7Q22.05-35.7 25.55-34.2L25.55-34.2 25.05-29.95Q23.4-30.75 21.78-31.15 20.15-31.55 18.2-31.55L18.2-31.55Q14.5-31.55 11.88-29.7 9.25-27.85 7.9-24.65 6.55-21.45 6.55-17.5L6.55-17.5Q6.55-11.2 9.5-7.33 12.45-3.45 18.15-3.45L18.15-3.45Q20.35-3.45 22-4.15L22-4.15 22-13.4 17.55-13.4 17.55-17.55 26.55-17.55 26.55-1.6Q24.9-0.55 22.6 0.08 20.3 0.7 17.9 0.7L17.9 0.7ZM31.15 0L31.15-24.5 34.7-24.5 35.25-20.4Q36.9-22.8 38.37-23.9 39.85-25 41.5-25L41.5-25Q42.15-25 42.65-24.85L42.65-24.85 42.2-19.9Q41.55-20.05 40.7-20.05L40.7-20.05Q39.05-20.05 37.6-19.23 36.15-18.4 35.5-17.3L35.5-17.3 35.5 0 31.15 0ZM54.5 0.5Q51.2 0.5 48.8-1.18 46.4-2.85 45.12-5.75 43.85-8.65 43.85-12.25L43.85-12.25Q43.85-15.85 45.12-18.75 46.4-21.65 48.8-23.33 51.2-25 54.5-25L54.5-25Q57.75-25 60.15-23.33 62.55-21.65 63.8-18.75 65.05-15.85 65.05-12.25L65.05-12.25Q65.05-8.65 63.8-5.75 62.55-2.85 60.15-1.18 57.75 0.5 54.5 0.5L54.5 0.5ZM54.5-3.35Q57.4-3.35 59-5.7 60.59-8.05 60.59-12.25L60.59-12.25Q60.59-16.45 59-18.78 57.4-21.1 54.5-21.1L54.5-21.1Q51.5-21.1 49.9-18.78 48.3-16.45 48.3-12.25L48.3-12.25Q48.3-8 49.9-5.68 51.5-3.35 54.5-3.35L54.5-3.35ZM78.09 0.5Q74.79 0.5 72.39-1.18 69.99-2.85 68.72-5.75 67.44-8.65 67.44-12.25L67.44-12.25Q67.44-15.85 68.72-18.75 69.99-21.65 72.39-23.33 74.79-25 78.09-25L78.09-25Q81.34-25 83.74-23.33 86.14-21.65 87.39-18.75 88.64-15.85 88.64-12.25L88.64-12.25Q88.64-8.65 87.39-5.75 86.14-2.85 83.74-1.18 81.34 0.5 78.09 0.5L78.09 0.5ZM78.09-3.35Q80.99-3.35 82.59-5.7 84.19-8.05 84.19-12.25L84.19-12.25Q84.19-16.45 82.59-18.78 80.99-21.1 78.09-21.1L78.09-21.1Q75.09-21.1 73.49-18.78 71.89-16.45 71.89-12.25L71.89-12.25Q71.89-8 73.49-5.68 75.09-3.35 78.09-3.35L78.09-3.35ZM116.84-25Q124.94-25 124.94-14L124.94-14 124.94 0 120.59 0 120.59-13.45Q120.59-17.45 119.52-19.23 118.44-21 115.89-21L115.89-21Q113.44-21 112.14-19.2 110.84-17.4 110.84-14L110.84-14 110.84 0 106.49 0 106.49-13.45Q106.49-17.3 105.42-19.15 104.34-21 102.09-21L102.09-21Q100.44-21 99.04-20.1 97.64-19.2 96.69-17.6L96.69-17.6 96.69 0 92.34 0 92.34-24.5 95.94-24.5 96.29-21.4Q97.34-23.05 99.14-24.03 100.94-25 103.09-25L103.09-25Q105.34-25 106.97-23.93 108.59-22.85 109.54-20.85L109.54-20.85Q110.49-22.8 112.37-23.9 114.24-25 116.84-25L116.84-25ZM129.99-30.05L129.99-35 134.34-35 134.34-30.05 129.99-30.05ZM129.99 0L129.99-24.5 134.34-24.5 134.34 0 129.99 0ZM150.53-25Q154.34-25 156.36-22.03 158.38-19.05 158.38-14L158.38-14 158.38 0 154.03 0 154.03-13.45Q154.03-17.35 152.91-19.23 151.78-21.1 149.53-21.1L149.53-21.1Q147.88-21.1 146.48-20.18 145.09-19.25 144.13-17.6L144.13-17.6 144.13 0 139.78 0 139.78-24.5 143.48-24.5 143.78-21.45Q144.84-23.1 146.61-24.05 148.38-25 150.53-25L150.53-25ZM171.48 12.5Q167.13 12.5 164.41 10.73 161.68 8.95 161.68 5.85L161.68 5.85Q161.68 2.3 165.58-0.35L165.58-0.35Q163.28-1.45 163.28-3.7L163.28-3.7Q163.28-4.85 163.98-5.73 164.68-6.6 165.98-7.1L165.98-7.1Q164.13-8.4 163.13-10.6 162.13-12.8 162.13-15.45L162.13-15.45Q162.13-18.15 163.18-20.33 164.23-22.5 166.21-23.75 168.18-25 170.83-25L170.83-25Q174.03-25 176.23-23.2L176.23-23.2Q178.18-25 180.38-25L180.38-25Q181.03-25 181.63-24.9L181.63-24.9 181.18-21.4Q180.68-21.5 180.18-21.5L180.18-21.5Q179.13-21.5 178.08-21.05L178.08-21.05Q179.53-18.7 179.53-15.45L179.53-15.45Q179.53-12.75 178.48-10.53 177.43-8.3 175.46-6.98 173.48-5.65 170.83-5.65L170.83-5.65Q169.43-5.65 168.33-6L168.33-6Q167.38-5.6 167.38-4.85L167.38-4.85Q167.38-4.2 168.03-3.83 168.68-3.45 170.33-2.95L170.33-2.95 173.78-1.9Q176.88-0.95 178.66-0.03 180.43 0.9 181.28 2.18 182.13 3.45 182.13 5.35L182.13 5.35Q182.13 8.75 179.18 10.63 176.23 12.5 171.48 12.5L171.48 12.5ZM170.83-9.1Q172.98-9.1 174.18-10.83 175.38-12.55 175.38-15.4L175.38-15.4Q175.38-18.1 174.18-19.8 172.98-21.5 170.83-21.5L170.83-21.5Q168.68-21.5 167.48-19.83 166.28-18.15 166.28-15.4L166.28-15.4Q166.28-12.55 167.48-10.83 168.68-9.1 170.83-9.1L170.83-9.1ZM171.78 8.95Q174.48 8.95 176.11 8.1 177.73 7.25 177.73 5.6L177.73 5.6Q177.73 4.25 176.73 3.48 175.73 2.7 173.08 1.9L173.08 1.9 169.08 0.7Q165.68 2.85 165.68 5.2L165.68 5.2Q165.68 7.05 167.31 8 168.93 8.95 171.78 8.95L171.78 8.95ZM200.63 0.5Q196.33 0.5 193.18-1.5L193.18-1.5 193.73-5.9Q196.93-3.4 200.33-3.4L200.33-3.4Q202.13-3.4 203.15-4.15 204.18-4.9 204.18-6.35L204.18-6.35Q204.18-7.45 203.7-8.15 203.23-8.85 202.13-9.5 201.03-10.15 198.73-11.2L198.73-11.2Q196.03-12.45 194.78-14.05 193.53-15.65 193.53-18.2L193.53-18.2Q193.53-21.2 195.63-23.1 197.73-25 201.28-25L201.28-25Q204.88-25 207.58-23.4L207.58-23.4 207.03-19.35Q205.68-20.25 204.48-20.68 203.28-21.1 201.63-21.1L201.63-21.1Q199.88-21.1 198.88-20.35 197.88-19.6 197.88-18.25L197.88-18.25Q197.88-16.9 198.75-16.2 199.63-15.5 202.18-14.35L202.18-14.35Q205.73-12.75 207.18-11.13 208.63-9.5 208.63-6.85L208.63-6.85Q208.63-3.4 206.48-1.45 204.33 0.5 200.63 0.5L200.63 0.5ZM219.37 0.5Q216.52 0.5 215.15-1.2 213.77-2.9 213.77-5.35L213.77-5.35 213.77-21.05 210.37-21.05 210.77-24.5 213.77-24.5 213.77-30.55 218.12-31 218.12-24.5 223.42-24.5 223.42-21.05 218.12-21.05 218.12-7.1Q218.12-4.85 218.95-3.95 219.77-3.05 221.82-3.05L221.82-3.05 223.37-3.05 222.97 0.5 219.37 0.5ZM240.42-24.5L244.77-24.5 244.77 0 241.07 0 240.77-3Q239.77-1.35 238.07-0.43 236.37 0.5 234.32 0.5L234.32 0.5Q230.47 0.5 228.6-2.08 226.72-4.65 226.72-9.45L226.72-9.45 226.72-24.5 231.07-24.5 231.07-10Q231.07-6.7 232.05-5.08 233.02-3.45 235.32-3.45L235.32-3.45Q236.92-3.45 238.22-4.35 239.52-5.25 240.42-6.85L240.42-6.85 240.42-24.5ZM265.67-37.5L270.02-37.5 270.02 0 266.17 0 265.82-2.25Q264.67-0.9 263.07-0.2 261.47 0.5 259.57 0.5L259.57 0.5Q256.72 0.5 254.47-1.18 252.22-2.85 250.92-5.75 249.62-8.65 249.62-12.2L249.62-12.2Q249.62-15.65 250.84-18.57 252.07-21.5 254.34-23.25 256.62-25 259.57-25L259.57-25Q263.22-25 265.67-22.45L265.67-22.45 265.67-37.5ZM260.02-3.35Q262.77-3.35 264.42-5.53 266.07-7.7 266.07-12.2L266.07-12.2Q266.07-16.55 264.42-18.82 262.77-21.1 260.02-21.1L260.02-21.1Q258.32-21.1 256.97-19.95 255.62-18.8 254.84-16.78 254.07-14.75 254.07-12.2L254.07-12.2Q254.07-9.8 254.84-7.78 255.62-5.75 257-4.55 258.37-3.35 260.02-3.35L260.02-3.35ZM285.72 0.5Q282.02 0.5 279.39-1.23 276.77-2.95 275.44-5.9 274.12-8.85 274.12-12.45L274.12-12.45Q274.12-15.9 275.34-18.78 276.57-21.65 278.89-23.33 281.22-25 284.42-25L284.42-25Q288.52-25 291.09-22.25 293.67-19.5 293.67-14.65L293.67-14.65Q293.67-13.8 293.47-12.3L293.47-12.3 278.57-12.3Q278.72-7.95 280.74-5.7 282.77-3.45 286.02-3.45L286.02-3.45Q287.57-3.45 289.29-3.83 291.02-4.2 292.32-4.9L292.32-4.9 292.72-1Q289.97 0.5 285.72 0.5L285.72 0.5ZM278.77-15.35L289.22-15.35Q289.22-17.85 287.99-19.43 286.77-21 284.47-21L284.47-21Q282.22-21 280.74-19.6 279.27-18.2 278.77-15.35L278.77-15.35ZM307.96-25Q311.76-25 313.79-22.03 315.81-19.05 315.81-14L315.81-14 315.81 0 311.46 0 311.46-13.45Q311.46-17.35 310.34-19.23 309.21-21.1 306.96-21.1L306.96-21.1Q305.31-21.1 303.91-20.18 302.51-19.25 301.56-17.6L301.56-17.6 301.56 0 297.21 0 297.21-24.5 300.91-24.5 301.21-21.45Q302.26-23.1 304.04-24.05 305.81-25 307.96-25L307.96-25ZM327.66 0.5Q324.81 0.5 323.44-1.2 322.06-2.9 322.06-5.35L322.06-5.35 322.06-21.05 318.66-21.05 319.06-24.5 322.06-24.5 322.06-30.55 326.41-31 326.41-24.5 331.71-24.5 331.71-21.05 326.41-21.05 326.41-7.1Q326.41-4.85 327.24-3.95 328.06-3.05 330.11-3.05L330.11-3.05 331.66-3.05 331.26 0.5 327.66 0.5ZM341.81 0.5Q337.51 0.5 334.36-1.5L334.36-1.5 334.91-5.9Q338.11-3.4 341.51-3.4L341.51-3.4Q343.31-3.4 344.33-4.15 345.36-4.9 345.36-6.35L345.36-6.35Q345.36-7.45 344.88-8.15 344.41-8.85 343.31-9.5 342.21-10.15 339.91-11.2L339.91-11.2Q337.21-12.45 335.96-14.05 334.71-15.65 334.71-18.2L334.71-18.2Q334.71-21.2 336.81-23.1 338.91-25 342.46-25L342.46-25Q346.06-25 348.76-23.4L348.76-23.4 348.21-19.35Q346.86-20.25 345.66-20.68 344.46-21.1 342.81-21.1L342.81-21.1Q341.06-21.1 340.06-20.35 339.06-19.6 339.06-18.25L339.06-18.25Q339.06-16.9 339.94-16.2 340.81-15.5 343.36-14.35L343.36-14.35Q346.91-12.75 348.36-11.13 349.81-9.5 349.81-6.85L349.81-6.85Q349.81-3.4 347.66-1.45 345.51 0.5 341.81 0.5L341.81 0.5ZM364.5 0L364.5-21.05 361.1-21.05 361.6-24.5 364.5-24.5 364.5-31.05Q364.5-33.95 366.15-35.73 367.8-37.5 370.85-37.5L370.85-37.5Q372.7-37.5 374.1-36.95L374.1-36.95 373.55-33.2Q372.5-33.55 371.55-33.55L371.55-33.55Q370.25-33.55 369.55-32.73 368.85-31.9 368.85-30.4L368.85-30.4 368.85-24.5 374.25-24.5 374.25-21.05 368.85-21.05 368.85 0 364.5 0ZM386.65 0.5Q383.35 0.5 380.95-1.18 378.55-2.85 377.28-5.75 376-8.65 376-12.25L376-12.25Q376-15.85 377.28-18.75 378.55-21.65 380.95-23.33 383.35-25 386.65-25L386.65-25Q389.9-25 392.3-23.33 394.7-21.65 395.95-18.75 397.2-15.85 397.2-12.25L397.2-12.25Q397.2-8.65 395.95-5.75 394.7-2.85 392.3-1.18 389.9 0.5 386.65 0.5L386.65 0.5ZM386.65-3.35Q389.55-3.35 391.15-5.7 392.75-8.05 392.75-12.25L392.75-12.25Q392.75-16.45 391.15-18.78 389.55-21.1 386.65-21.1L386.65-21.1Q383.65-21.1 382.05-18.78 380.45-16.45 380.45-12.25L380.45-12.25Q380.45-8 382.05-5.68 383.65-3.35 386.65-3.35L386.65-3.35ZM401.25 0L401.25-24.5 404.8-24.5 405.35-20.4Q407-22.8 408.48-23.9 409.95-25 411.6-25L411.6-25Q412.25-25 412.75-24.85L412.75-24.85 412.3-19.9Q411.65-20.05 410.8-20.05L410.8-20.05Q409.15-20.05 407.7-19.23 406.25-18.4 405.6-17.3L405.6-17.3 405.6 0 401.25 0ZM440.35-37.5L444.7-37.5 444.7 0 440.85 0 440.5-2.25Q439.35-0.9 437.75-0.2 436.15 0.5 434.25 0.5L434.25 0.5Q431.4 0.5 429.15-1.18 426.9-2.85 425.6-5.75 424.3-8.65 424.3-12.2L424.3-12.2Q424.3-15.65 425.52-18.57 426.75-21.5 429.02-23.25 431.3-25 434.25-25L434.25-25Q437.9-25 440.35-22.45L440.35-22.45 440.35-37.5ZM434.7-3.35Q437.45-3.35 439.1-5.53 440.75-7.7 440.75-12.2L440.75-12.2Q440.75-16.55 439.1-18.82 437.45-21.1 434.7-21.1L434.7-21.1Q433-21.1 431.65-19.95 430.3-18.8 429.52-16.78 428.75-14.75 428.75-12.2L428.75-12.2Q428.75-9.8 429.52-7.78 430.3-5.75 431.67-4.55 433.05-3.35 434.7-3.35L434.7-3.35ZM455.04 0.5Q452.24 0.5 450.44-1.5 448.64-3.5 448.64-6.6L448.64-6.6Q448.64-11.2 452.49-13.23 456.34-15.25 461.09-15.35L461.09-15.35Q461.09-18.55 460.14-19.8 459.19-21.05 456.94-21.05L456.94-21.05Q454.04-21.05 451.04-18.8L451.04-18.8 450.49-22.45Q453.64-25 457.79-25L457.79-25Q461.74-25 463.64-22.73 465.54-20.45 465.54-15.4L465.54-15.4 465.54-8.25Q465.54-5.4 465.94-4.23 466.34-3.05 467.69-3.05L467.69-3.05 468.24-3.05 467.69 0.5 466.74 0.5Q464.44 0.5 463.34-0.35 462.24-1.2 461.54-3.1L461.54-3.1Q460.39-1.45 458.69-0.48 456.99 0.5 455.04 0.5L455.04 0.5ZM456.39-3.05Q457.59-3.05 458.89-3.98 460.19-4.9 461.09-6.4L461.09-6.4 461.09-12.25Q457.24-12.05 455.24-10.78 453.24-9.5 453.24-6.85L453.24-6.85Q453.24-3.05 456.39-3.05L456.39-3.05ZM478.69 0.5Q475.84 0.5 474.47-1.2 473.09-2.9 473.09-5.35L473.09-5.35 473.09-21.05 469.69-21.05 470.09-24.5 473.09-24.5 473.09-30.55 477.44-31 477.44-24.5 482.74-24.5 482.74-21.05 477.44-21.05 477.44-7.1Q477.44-4.85 478.27-3.95 479.09-3.05 481.14-3.05L481.14-3.05 482.69-3.05 482.29 0.5 478.69 0.5ZM491.34 0.5Q488.54 0.5 486.74-1.5 484.94-3.5 484.94-6.6L484.94-6.6Q484.94-11.2 488.79-13.23 492.64-15.25 497.39-15.35L497.39-15.35Q497.39-18.55 496.44-19.8 495.49-21.05 493.24-21.05L493.24-21.05Q490.34-21.05 487.34-18.8L487.34-18.8 486.79-22.45Q489.94-25 494.09-25L494.09-25Q498.04-25 499.94-22.73 501.84-20.45 501.84-15.4L501.84-15.4 501.84-8.25Q501.84-5.4 502.24-4.23 502.64-3.05 503.99-3.05L503.99-3.05 504.54-3.05 503.99 0.5 503.04 0.5Q500.74 0.5 499.64-0.35 498.54-1.2 497.84-3.1L497.84-3.1Q496.69-1.45 494.99-0.48 493.29 0.5 491.34 0.5L491.34 0.5ZM492.69-3.05Q493.89-3.05 495.19-3.98 496.49-4.9 497.39-6.4L497.39-6.4 497.39-12.25Q493.54-12.05 491.54-10.78 489.54-9.5 489.54-6.85L489.54-6.85Q489.54-3.05 492.69-3.05L492.69-3.05ZM522.73 0.5Q519.93 0.5 518.13-1.5 516.33-3.5 516.33-6.6L516.33-6.6Q516.33-11.2 520.18-13.23 524.03-15.25 528.78-15.35L528.78-15.35Q528.78-18.55 527.83-19.8 526.88-21.05 524.63-21.05L524.63-21.05Q521.73-21.05 518.73-18.8L518.73-18.8 518.18-22.45Q521.33-25 525.48-25L525.48-25Q529.43-25 531.33-22.73 533.23-20.45 533.23-15.4L533.23-15.4 533.23-8.25Q533.23-5.4 533.63-4.23 534.03-3.05 535.38-3.05L535.38-3.05 535.93-3.05 535.38 0.5 534.43 0.5Q532.13 0.5 531.03-0.35 529.93-1.2 529.23-3.1L529.23-3.1Q528.08-1.45 526.38-0.48 524.68 0.5 522.73 0.5L522.73 0.5ZM524.08-3.05Q525.28-3.05 526.58-3.98 527.88-4.9 528.78-6.4L528.78-6.4 528.78-12.25Q524.93-12.05 522.93-10.78 520.93-9.5 520.93-6.85L520.93-6.85Q520.93-3.05 524.08-3.05L524.08-3.05ZM550.08-25Q553.88-25 555.9-22.03 557.93-19.05 557.93-14L557.93-14 557.93 0 553.58 0 553.58-13.45Q553.58-17.35 552.45-19.23 551.33-21.1 549.08-21.1L549.08-21.1Q547.43-21.1 546.03-20.18 544.63-19.25 543.68-17.6L543.68-17.6 543.68 0 539.33 0 539.33-24.5 543.03-24.5 543.33-21.45Q544.38-23.1 546.15-24.05 547.93-25 550.08-25L550.08-25ZM567.78 0.5Q564.98 0.5 563.18-1.5 561.38-3.5 561.38-6.6L561.38-6.6Q561.38-11.2 565.23-13.23 569.08-15.25 573.83-15.35L573.83-15.35Q573.83-18.55 572.88-19.8 571.93-21.05 569.68-21.05L569.68-21.05Q566.78-21.05 563.78-18.8L563.78-18.8 563.23-22.45Q566.38-25 570.53-25L570.53-25Q574.48-25 576.38-22.73 578.28-20.45 578.28-15.4L578.28-15.4 578.28-8.25Q578.28-5.4 578.68-4.23 579.08-3.05 580.43-3.05L580.43-3.05 580.98-3.05 580.43 0.5 579.48 0.5Q577.18 0.5 576.08-0.35 574.98-1.2 574.28-3.1L574.28-3.1Q573.13-1.45 571.43-0.48 569.73 0.5 567.78 0.5L567.78 0.5ZM569.13-3.05Q570.33-3.05 571.63-3.98 572.93-4.9 573.83-6.4L573.83-6.4 573.83-12.25Q569.98-12.05 567.98-10.78 565.98-9.5 565.98-6.85L565.98-6.85Q565.98-3.05 569.13-3.05L569.13-3.05ZM590.12 0.5Q587.32 0.5 585.97-1.2 584.62-2.9 584.62-5.4L584.62-5.4 584.62-37.5 588.97-37.5 588.97-8Q588.97-5.8 589.2-4.78 589.42-3.75 590.07-3.4 590.72-3.05 592.17-3.05L592.17-3.05 591.62 0.5 590.12 0.5ZM597.07 12.1L601.97-1.1 593.02-24.5 597.67-24.5 604.22-6.25 610.22-24.5 614.87-24.5 601.72 12.1 597.07 12.1ZM624.92 0.5Q622.07 0.5 620.69-1.2 619.32-2.9 619.32-5.35L619.32-5.35 619.32-21.05 615.92-21.05 616.32-24.5 619.32-24.5 619.32-30.55 623.67-31 623.67-24.5 628.97-24.5 628.97-21.05 623.67-21.05 623.67-7.1Q623.67-4.85 624.49-3.95 625.32-3.05 627.37-3.05L627.37-3.05 628.92-3.05 628.52 0.5 624.92 0.5ZM632.87-30.05L632.87-35 637.22-35 637.22-30.05 632.87-30.05ZM632.87 0L632.87-24.5 637.22-24.5 637.22 0 632.87 0ZM652.76 0.5Q647.16 0.5 644.26-3.03 641.36-6.55 641.36-12.1L641.36-12.1Q641.36-17.85 644.26-21.43 647.16-25 652.86-25L652.86-25Q655.91-25 658.31-23.75L658.31-23.75 657.61-19.9Q655.36-21.1 652.91-21.1L652.91-21.1Q649.56-21.1 647.69-18.78 645.81-16.45 645.81-12.3L645.81-12.3Q645.81-8.15 647.74-5.75 649.66-3.35 653.06-3.35L653.06-3.35Q655.66-3.35 657.66-4.55L657.66-4.55 658.26-0.65Q657.26-0.15 655.76 0.18 654.26 0.5 652.76 0.5L652.76 0.5ZM668.51 0.5Q664.21 0.5 661.06-1.5L661.06-1.5 661.61-5.9Q664.81-3.4 668.21-3.4L668.21-3.4Q670.01-3.4 671.04-4.15 672.06-4.9 672.06-6.35L672.06-6.35Q672.06-7.45 671.59-8.15 671.11-8.85 670.01-9.5 668.91-10.15 666.61-11.2L666.61-11.2Q663.91-12.45 662.66-14.05 661.41-15.65 661.41-18.2L661.41-18.2Q661.41-21.2 663.51-23.1 665.61-25 669.16-25L669.16-25Q672.76-25 675.46-23.4L675.46-23.4 674.91-19.35Q673.56-20.25 672.36-20.68 671.16-21.1 669.51-21.1L669.51-21.1Q667.76-21.1 666.76-20.35 665.76-19.6 665.76-18.25L665.76-18.25Q665.76-16.9 666.64-16.2 667.51-15.5 670.06-14.35L670.06-14.35Q673.61-12.75 675.06-11.13 676.51-9.5 676.51-6.85L676.51-6.85Q676.51-3.4 674.36-1.45 672.21 0.5 668.51 0.5L668.51 0.5Z" opacity="1" transform="matrix(1,0,0,1,0,0)" fill="#ba3b0a" class="slogan-text-1" data-fill-palette-color="secondary" id="text-1"></path></svg></g></svg></g></svg></g></svg></g><g transform="matrix(1,0,0,1,409.93997848079414,0)"><svg viewBox="0 0 104.4223936292369 128.11152329523318" height="128.11152329523318" width="104.4223936292369"><g><svg xmlns="http://www.w3.org/2000/svg" xmlns:xlink="http://www.w3.org/1999/xlink" version="1.1" x="0" y="0" viewBox="13.321668843145552 5.000000000000001 73.3580804044737 90" style="enable-background:new 0 0 100 100;" xml:space="preserve" height="128.11152329523318" width="104.4223936292369" class="icon-icon-0" data-fill-palette-color="accent" id="icon-0"><path d="M85.918 81.123l-28.16-7.542v-4.957c4.004-1.222 7.775-3.403 10.937-6.565 2.933-2.933 4.956-6.396 6.245-10.057 0.149 0.085 0.287 0.196 0.471 0.196h1.525c0.762 0 1.484-0.297 2.038-0.847 0.534-0.534 0.838-1.276 0.838-2.03v-4.11c0-0.766-0.297-1.486-0.843-2.036-0.546-0.542-1.268-0.841-2.034-0.841h-0.518c-0.193-5.014-1.766-9.997-4.906-14.345v-5.594l3.627-1.376v10.976c0 0.568 0.461 1.027 1.027 1.027 0.566 0 1.027-0.459 1.027-1.027V20.239l4.048-1.536c0.397-0.152 0.662-0.534 0.662-0.961 0-0.427-0.265-0.808-0.662-0.961L50.366 5.066c-0.237-0.088-0.493-0.088-0.73 0L18.76 16.781c-0.399 0.152-0.662 0.534-0.662 0.961 0 0.427 0.265 0.808 0.662 0.961l9.731 3.691v5.588c-3.163 4.347-4.753 9.33-4.943 14.351h-0.483c-0.766 0-1.488 0.299-2.032 0.843-0.544 0.544-0.843 1.266-0.843 2.034v4.11c0 0.758 0.307 1.5 0.845 2.038 0.546 0.542 1.266 0.838 2.03 0.838h1.527c0.176 0 0.305-0.109 0.45-0.187 1.296 3.651 3.324 7.109 6.262 10.048 3.162 3.162 6.934 5.343 10.939 6.565v4.957l-28.158 7.543c-0.55 0.144-0.875 0.71-0.728 1.256 0.124 0.461 0.54 0.762 0.993 0.762 0.088 0 0.177-0.012 0.265-0.036l5.695-1.526 29.267 13.329C49.714 94.972 49.858 95 50.001 95c0.142 0 0.287-0.028 0.425-0.092l29.266-13.329 5.696 1.526c0.088 0.024 0.177 0.036 0.265 0.036 0.453 0 0.871-0.301 0.991-0.762C86.792 81.833 86.467 81.267 85.918 81.123zM70.8 30.761c2.254 3.671 3.439 7.714 3.569 11.805-2.513-1.188-4.843-2.701-6.842-4.697-0.72-0.722-1.336-1.536-1.961-2.339C68.086 34.226 69.888 32.593 70.8 30.761zM76.437 44.387h0.497c0.221 0 0.425 0.086 0.578 0.239 0.156 0.158 0.245 0.365 0.245 0.584v4.11c0 0.217-0.088 0.429-0.237 0.578-0.16 0.158-0.369 0.245-0.586 0.245h-0.497V44.387zM50.001 7.126l27.977 10.616L50.001 28.356 22.019 17.742 50.001 7.126zM49.636 30.416c0.118 0.044 0.241 0.066 0.365 0.066s0.247-0.022 0.365-0.066l19.091-7.243v4.954c0 4.67-8.911 8.614-19.456 8.614s-19.456-3.944-19.456-8.614v-4.953L49.636 30.416zM46.902 38.644c-6.307 3.936-14.166 4.757-21.26 2.116 0.375-3.486 1.608-6.884 3.548-10.017C31.256 34.926 38.133 38.036 46.902 38.644zM23.564 50.142h-0.499c-0.215 0-0.427-0.088-0.58-0.241s-0.241-0.365-0.241-0.582v-4.11c0-0.221 0.086-0.427 0.241-0.582 0.154-0.154 0.361-0.241 0.58-0.241h0.456C23.537 44.794 23.564 50.142 23.564 50.142zM25.618 45.456l-0.031-2.083c0-0.03 0.003-0.332 0.005-0.453 2.779 0.95 5.655 1.445 8.518 1.445 5.784 0 11.484-1.928 16.148-5.583 5.132-0.029 9.721-0.934 13.351-2.398 0.764 1.023 1.559 2.031 2.466 2.938 2.41 2.41 5.212 4.276 8.309 5.595v0.366c-0.455 5.591-2.859 11.04-7.141 15.323-9.504 9.504-24.976 9.512-34.487 0C28.501 56.35 26.115 50.973 25.618 45.456zM49.999 69.789c1.916 0 3.826-0.229 5.705-0.642v8.834c0 3.145-2.558 5.705-5.703 5.705s-5.705-2.56-5.705-5.705v-8.834C46.174 69.559 48.084 69.789 49.999 69.789zM52.965 85.146L50 91.534l-2.965-6.389c0.915 0.38 1.915 0.595 2.966 0.595C51.051 85.74 52.05 85.526 52.965 85.146zM42.241 75.704v2.278c0 1.13 0.256 2.197 0.692 3.167 0.006 0.014-0.005 0.029 0.002 0.043l4.966 10.697L23.428 80.743 42.241 75.704zM52.1 91.888l4.964-10.698c0.007-0.014-0.004-0.028 0.002-0.042 0.437-0.97 0.692-2.037 0.692-3.167v-2.277l18.814 5.039L52.1 91.888zM42.354 46.399c-0.997-0.999-2.628-0.999-3.629 0-1.001 0.999-1.001 2.628 0.002 3.629 0.499 0.495 1.155 0.748 1.811 0.748 0.658 0 1.314-0.253 1.815-0.75C43.355 49.027 43.355 47.398 42.354 46.399zM40.903 48.572c-0.201 0.199-0.524 0.203-0.726 0.002-0.199-0.199-0.199-0.524 0-0.722 0.1-0.1 0.231-0.15 0.363-0.15 0.13 0 0.261 0.05 0.361 0.15C41.1 48.05 41.1 48.375 40.903 48.572zM59.459 50.776c0.658 0 1.316-0.253 1.817-0.752 0.999-0.999 0.999-2.624 0-3.623 0-0.002 0-0.002 0-0.002-1.007-1.005-2.628-0.995-3.631 0.002-0.999 0.999-0.999 2.624 0 3.627C58.147 50.528 58.805 50.776 59.459 50.776zM59.098 47.852c0.1-0.1 0.233-0.15 0.361-0.15 0.132 0 0.265 0.05 0.365 0.15 0.197 0.201 0.197 0.524 0 0.72-0.197 0.201-0.522 0.207-0.726 0.004C58.901 48.375 58.901 48.05 59.098 47.852zM57.529 59.242c-2.074 2.074-4.802 3.113-7.528 3.113-2.728 0-5.454-1.039-7.53-3.113-0.401-0.401-0.401-1.051 0-1.452 0.401-0.401 1.051-0.401 1.452 0 3.352 3.354 8.8 3.354 12.154 0 0.401-0.401 1.051-0.401 1.452 0C57.93 58.19 57.93 58.84 57.529 59.242z" fill="#ba3b0a" data-fill-palette-color="accent"></path></svg></g></svg></g></svg></g><defs></defs></svg><rect width="395.52" height="98.51161834771865" fill="none" stroke="none" visibility="hidden"></rect></g></svg></g></svg>